<?xml version="1.0" encoding="UTF-8" standalone="no"?>
<svg
   xmlns:dc="http://purl.org/dc/elements/1.1/"
   xmlns:cc="http://creativecommons.org/ns#"
   xmlns:rdf="http://www.w3.org/1999/02/22-rdf-syntax-ns#"
   xmlns:svg="http://www.w3.org/2000/svg"
   xmlns="http://www.w3.org/2000/svg"
   xmlns:sodipodi="http://sodipodi.sourceforge.net/DTD/sodipodi-0.dtd"
   xmlns:inkscape="http://www.inkscape.org/namespaces/inkscape"
   inkscape:export-ydpi="96"
   inkscape:export-xdpi="96"
   inkscape:export-filename="/home/cliciom/Projetos/MyProjects/random-palette/img/logo-icon.png"
   sodipodi:docname="logo-icon.svg"
   inkscape:version="1.0 (4035a4fb49, 2020-05-01)"
   id="svg8"
   version="1.1"
   viewBox="0 0 26.458333 26.458334"
   height="100"
   width="100">
  <defs
     id="defs2" />
  <sodipodi:namedview
     inkscape:window-maximized="1"
     inkscape:window-y="26"
     inkscape:window-x="44"
     inkscape:window-height="742"
     inkscape:window-width="1322"
     inkscape:snap-global="true"
     inkscape:guide-bbox="true"
     showguides="true"
     inkscape:showpageshadow="false"
     units="px"
     showgrid="false"
     inkscape:document-rotation="0"
     inkscape:current-layer="layer1"
     inkscape:document-units="px"
     inkscape:cy="51.282998"
     inkscape:cx="43.006496"
     inkscape:zoom="3.959798"
     inkscape:pageshadow="2"
     inkscape:pageopacity="0.0"
     borderopacity="1.0"
     bordercolor="#666666"
     pagecolor="#ffffff"
     id="base" />
  <metadata
     id="metadata5">
    <rdf:RDF>
      <cc:Work
         rdf:about="">
        <dc:format>image/svg+xml</dc:format>
        <dc:type
           rdf:resource="http://purl.org/dc/dcmitype/StillImage" />
        <dc:title></dc:title>
      </cc:Work>
    </rdf:RDF>
  </metadata>
  <g
     id="layer1"
     inkscape:groupmode="layer"
     inkscape:label="Layer 1">
    <rect
       style="fill:#08090a;fill-opacity:1;stroke:none;stroke-width:0.312672;stroke-linejoin:bevel;stroke-miterlimit:4;stroke-dasharray:none;stroke-opacity:1"
       id="rect860"
       width="4.7624998"
       height="18.785418"
       x="6.0388441"
       y="6.4970846" />
    <rect
       y="6.4970846"
       x="10.788073"
       height="18.785418"
       width="4.7624998"
       id="rect862"
       style="fill:#4f7fa2;fill-opacity:1;stroke:none;stroke-width:0.312672;stroke-linejoin:bevel;stroke-miterlimit:4;stroke-dasharray:none;stroke-opacity:1" />
    <rect
       ry="0"
       y="6.4970846"
       x="20.313072"
       height="18.785418"
       width="5.0853758"
       id="rect866"
       style="fill:#b90c3d;fill-opacity:1;stroke:none;stroke-width:0.323097;stroke-linejoin:bevel;stroke-miterlimit:4;stroke-dasharray:none;stroke-opacity:1" />
    <rect
       style="fill:#dee4e8;fill-opacity:1;stroke:none;stroke-width:0.312672;stroke-linejoin:bevel;stroke-miterlimit:4;stroke-dasharray:none;stroke-opacity:1"
       id="rect864"
       width="4.7624998"
       height="18.785418"
       x="15.550572"
       y="6.4970846" />
    <rect
       y="6.4970846"
       x="1.2763441"
       height="18.785418"
       width="4.7624998"
       id="rect854"
       style="fill:#46b09c;fill-opacity:1;stroke:none;stroke-width:0.312672;stroke-linejoin:bevel;stroke-miterlimit:4;stroke-dasharray:none;stroke-opacity:1" />
    <g
       id="g1050">
      <path
         id="rect842"
         style="fill:#08090a;fill-opacity:1;stroke:none;stroke-width:1.066;stroke-linejoin:bevel;stroke-miterlimit:4;stroke-dasharray:none;stroke-opacity:1"
         d="M 95.024534,24.608657 95,14 C 94.997117,12.753503 94.749141,11.567703 94.294922,10.490234 93.840703,9.4127656 93.182516,8.4442344 92.369141,7.6308594 91.555766,6.8174844 90.587234,6.1592969 89.509766,5.7050781 88.432297,5.2508594 87.246499,5 86,5 H 14 C 12.7535,5 11.567703,5.2508594 10.490234,5.7050781 9.4127656,6.1592969 8.4442344,6.8174844 7.6308594,7.6308594 6.8174844,8.4442344 6.1592969,9.4127656 5.7050781,10.490234 5.2508594,11.567703 5,12.7535 5,14 L 4.8239774,24.55591 Z"
         sodipodi:nodetypes="csssssssssscc"
         transform="scale(0.26458333)" />
      <rect
         style="fill:#08090a;fill-opacity:1;stroke:none;stroke-width:0.273599;stroke-linejoin:bevel;stroke-miterlimit:4;stroke-dasharray:none;stroke-opacity:1"
         id="rect1046"
         width="26.458334"
         height="5.2916665"
         x="-2.3455812e-07"
         y="6.3413501" />
    </g>
    <path
       transform="scale(0.26458333)"
       d="M 10 0 C 4.4600003 3.5527137e-15 0 4.4600003 0 10 L 0 90 C 3.5527137e-15 95.540001 4.4600003 100 10 100 L 90 100 C 95.540001 100 100 95.540001 100 90 L 100 10 C 100 4.4600003 95.540001 0 90 0 L 10 0 z M 14 5 L 86 5 C 90.985998 5 95 9.014 95 14 L 95 86 C 95 90.985998 90.985998 95 86 95 L 14 95 C 9.014 95 5 90.985998 5 86 L 5 14 C 5 9.014 9.014 5 14 5 z "
       style="fill:#4f7fa2;fill-opacity:1;stroke:none;stroke-width:1.67277;stroke-linejoin:bevel;stroke-miterlimit:4;stroke-dasharray:none;stroke-opacity:1"
       id="rect833" />
    <g
       inkscape:label="Layer 1"
       id="layer1-9"
       transform="matrix(0.25015978,0,0,0.25015978,3.2196321,-64.507965)">
      <g
         id="g830"
         style="stroke:#4f7fa2;stroke-width:2.64583;stroke-linecap:round;stroke-linejoin:miter;stroke-miterlimit:4;stroke-dasharray:none;stroke-opacity:1;paint-order:fill markers stroke"
         transform="matrix(0.89591047,0.51725415,-0.51725415,0.89591047,146.72019,23.60305)">
        <path
           sodipodi:nodetypes="cccccccc"
           inkscape:connector-curvature="0"
           id="path823"
           d="m 0,277.15623 11.456794,-6.61458 11.456795,6.61458 v 13.22917 l -11.456795,6.61458 10e-7,-13.22916 h -10e-7 z"
           style="fill:none;stroke:#4f7fa2;stroke-width:2.64583;stroke-linecap:round;stroke-linejoin:miter;stroke-miterlimit:4;stroke-dasharray:none;stroke-opacity:1;paint-order:fill markers stroke" />
        <path
           inkscape:connector-curvature="0"
           id="path825"
           d="m 22.913589,277.15623 -11.456795,6.61459 v 13.22916"
           style="fill:none;stroke:#4f7fa2;stroke-width:2.64583;stroke-linecap:round;stroke-linejoin:miter;stroke-miterlimit:4;stroke-dasharray:none;stroke-opacity:1;paint-order:fill markers stroke" />
      </g>
      <path
         style="fill:#4f7fa2;fill-opacity:1;stroke:none;stroke-width:0.184202px;stroke-linecap:butt;stroke-linejoin:miter;stroke-opacity:1"
         d="M 6.4782833,273.71057 20.7702,281.96202 h -9.527947 z"
         id="path1595"
         inkscape:connector-curvature="0" />
    </g>
    <g
       transform="matrix(2.0000001,0,0,2.0000001,-23.724112,-1.3420349)"
       id="g1057">
      <circle
         style="fill:#dee4e8;fill-opacity:1;stroke:none;stroke-width:0.255453;stroke-linejoin:bevel;stroke-miterlimit:4;stroke-dasharray:none;stroke-opacity:1"
         id="path929"
         cx="21.638483"
         cy="3.9100006"
         r="1.3229166" />
      <g
         style="fill:none;stroke:#08090a;stroke-width:3;stroke-linecap:round;stroke-linejoin:round"
         id="g1026"
         transform="matrix(0.07582804,0,0,0.07582804,20.728547,3.0000641)">
        <polyline
           id="polyline1009"
           points="1 4 1 10 7 10" />
        <polyline
           id="polyline1011"
           points="23 20 23 14 17 14" />
        <path
           id="path1013"
           d="M 20.49,9 A 9,9 0 0 0 5.64,5.64 L 1,10 m 22,4 -4.64,4.36 A 9,9 0 0 1 3.51,15" />
      </g>
    </g>
  </g>
</svg>
